<?xml version="1.0" encoding="UTF-8" standalone="no"?>
<!-- Generator: Adobe Illustrator 19.0.0, SVG Export Plug-In . SVG Version: 6.00 Build 0)  -->

<svg
   xmlns:dc="http://purl.org/dc/elements/1.1/"
   xmlns:cc="http://creativecommons.org/ns#"
   xmlns:rdf="http://www.w3.org/1999/02/22-rdf-syntax-ns#"
   xmlns:svg="http://www.w3.org/2000/svg"
   xmlns="http://www.w3.org/2000/svg"
   xmlns:sodipodi="http://sodipodi.sourceforge.net/DTD/sodipodi-0.dtd"
   xmlns:inkscape="http://www.inkscape.org/namespaces/inkscape"
   version="1.1"
   x="0px"
   y="0px"
   viewBox="0 0 3223 4430.4999"
   xml:space="preserve"
   id="svg2"
   inkscape:version="0.91 r13725"
   sodipodi:docname="logo ajusté.svg"
   inkscape:export-filename="C:\laragon\www\dt-no-emu\src\assets\images\logo x256.png"
   inkscape:export-xdpi="5.2001987"
   inkscape:export-ydpi="5.2001987"
   width="3223"
   height="4430.5"><metadata
     id="metadata79"><rdf:RDF><cc:Work
         rdf:about=""><dc:format>image/svg+xml</dc:format><dc:type
           rdf:resource="http://purl.org/dc/dcmitype/StillImage" /><dc:title></dc:title></cc:Work></rdf:RDF></metadata><defs
     id="defs77" /><sodipodi:namedview
     pagecolor="#ffffff"
     bordercolor="#666666"
     borderopacity="1"
     objecttolerance="10"
     gridtolerance="10"
     guidetolerance="10"
     inkscape:pageopacity="0"
     inkscape:pageshadow="2"
     inkscape:window-width="1920"
     inkscape:window-height="1058"
     id="namedview75"
     showgrid="false"
     inkscape:zoom="0.07532939"
     inkscape:cx="-88.73009"
     inkscape:cy="1597.3822"
     inkscape:window-x="1672"
     inkscape:window-y="-8"
     inkscape:window-maximized="1"
     inkscape:current-layer="svg2"
     fit-margin-top="0"
     fit-margin-left="0"
     fit-margin-right="0"
     fit-margin-bottom="0" /><style
     type="text/css"
     id="style4">
	.st0{enable-background:new    ;}
	.st1{fill:#AEAEAE;}
	.st2{fill:#232323;}
	.st3{fill:#2196F3;}
	.st4{opacity:0.3608;}
	.st5{fill:#FFFFFF;}
	.st6{opacity:0.4314;}
	.st7{fill-rule:evenodd;clip-rule:evenodd;fill:#232323;}
</style><g
     id="Ellipse_1_1_"
     class="st0"
     style="enable-background:new"
     transform="translate(-21.51439,0)"><g
       id="Ellipse_1"><g
         id="g8"><path
           class="st1"
           d="M 1612.9,0 C 722.9,0 0,1453.8 0,2621.8 c 0,1168 721.5,1808.7 1611.5,1808.7 890,0 1611.5,-640.7 1611.5,-1808.7 C 3223,1453.8 2502.9,0 1612.9,0 Z"
           id="path10"
           inkscape:connector-curvature="0"
           style="fill:#aeaeae" /></g></g></g><g
     id="Inside_1_"
     transform="translate(-21.51439,0)"><g
       id="Forme_2_copie"><g
         id="g14"><path
           class="st2"
           d="m 2116.1,3112.2 c 187.5,-1279.4 920.6,-1449.4 603.3,-2103.4 -67,-143 -92.8,-277.8 -201.1,-337 C 1809.3,1569.5 360.9,1464.2 705.6,775.1 866.9,452.7 284.8,1120.8 325.1,1286 453,1810.1 1592.2,1895.1 2097,1647.4 620.3,4264 1979,4566.2 2412.2,4147 c 353.7,-342.4 578.3,-793.7 578.3,-793.7 0,0 -1061.9,1038.3 -874.4,-241.1 z"
           id="path16"
           inkscape:connector-curvature="0"
           style="fill:#232323" /></g></g><g
       id="Forme_5_copie"><g
         id="g19"><path
           class="st3"
           d="M 1709,463.1 C 1308.7,334.5 847.6,934 847.6,934 c 0,0 275.9,136 595.3,117.7 319.3,-18.4 725.7,-297.6 725.7,-297.6 0,0 -59.3,-162.5 -459.6,-291 z"
           id="path21"
           inkscape:connector-curvature="0"
           style="fill:#2196f3" /></g></g><g
       id="Forme_4_copie"><g
         id="g24"><path
           class="st3"
           d="m 2755,1718.1 c 0,0 -31.1,172.6 -110.2,450.4 -66.7,234 -284,487 -360,773.9 -76,286.9 -1.5,682.2 87.9,691.7 89.4,9.5 332.2,-142.4 454.6,-538.3 122.3,-396 -72.3,-1377.7 -72.3,-1377.7 z"
           id="path26"
           inkscape:connector-curvature="0"
           style="fill:#2196f3" /></g></g><g
       id="Ellipse_1_copie_3"
       class="st4"
       style="opacity:0.36079999"><g
         id="g29"><path
           class="st5"
           d="M 1612.9,0 C 722.9,0 0,1453.8 0,2621.8 c 0,1168 721.5,1808.7 1611.5,1808.7 890,0 1611.5,-640.7 1611.5,-1808.7 C 3223,1453.8 2502.9,0 1612.9,0 Z"
           id="path31"
           inkscape:connector-curvature="0"
           style="fill:#ffffff" /></g></g><g
       id="Ellipse_3_copie_2"
       class="st6"
       style="opacity:0.43140001"><g
         id="g34"><ellipse
           class="st5"
           cx="1612.9"
           cy="2503"
           rx="1165"
           ry="1746.1"
           id="ellipse36"
           style="fill:#ffffff" /></g></g><g
       id="Ellipse_3_copie"
       class="st6"
       style="opacity:0.43140001"><g
         id="g39"><path
           class="st5"
           d="m 1587,1064.6 c -530.9,0 -961.3,644.8 -961.3,1440.3 0,795.4 430.4,1440.3 961.3,1440.3 530.9,0 961.3,-644.8 961.3,-1440.3 0,-795.5 -430.4,-1440.3 -961.3,-1440.3 z"
           id="path41"
           inkscape:connector-curvature="0"
           style="fill:#ffffff" /></g></g><g
       id="Ellipse_3"
       class="st6"
       style="opacity:0.43140001"><g
         id="g44"><ellipse
           class="st5"
           cx="1585.1"
           cy="2503"
           rx="737.20001"
           ry="1104.8"
           id="ellipse46"
           style="fill:#ffffff" /></g></g></g><g
     id="Ellipse_1_copie_2_1_"
     class="st0"
     style="enable-background:new"><g
       id="Ellipse_1_copie_2"><g
         id="g50"><path
           class="st7"
           d="M 1612.9,0 C 722.9,0 0,1453.8 0,2621.8 c 0,1168 721.5,1808.7 1611.5,1808.7 890,0 1611.5,-640.7 1611.5,-1808.7 C 3223,1453.8 2502.9,0 1612.9,0 Z m 0,4243.5 C 839.5,4243.5 212.6,3670.8 212.6,2626.9 212.6,1583 840.8,283.5 1614.1,283.5 c 773.4,0 1399.1,1299.4 1399.1,2343.4 0,1043.9 -626.9,1616.6 -1400.3,1616.6 z"
           id="path52"
           inkscape:connector-curvature="0"
           style="clip-rule:evenodd;fill:#232323;fill-rule:evenodd" /></g></g></g><g
     id="Outside_1_"
     transform="translate(10.48561,11.141845)"><g
       id="Forme_4"><g
         id="g56"><path
           class="st3"
           d="m 901.4,1216.1 c -87,-23.8 -249,33.6 -428,430.9 C 294.3,2044.2 343,3106.8 343,3106.8 c 0,0 -2.8,-145.4 116.2,-425.2 100.2,-235.6 274,-458.5 391.2,-748.3 117.2,-289.9 138,-693.4 51,-717.2 z"
           id="path58"
           inkscape:connector-curvature="0"
           style="fill:#2196f3" /></g></g><g
       id="Forme_5"><g
         id="g61"><path
           class="st3"
           d="M 2060.8,3492.3 C 1565.5,3378.5 995,3909 995,3909 c 0,0 333.4,260 728.5,243.8 395.1,-16.3 754,-382.7 754,-382.7 0,0 78.6,-164.1 -416.7,-277.8 z"
           id="path63"
           inkscape:connector-curvature="0"
           style="fill:#2196f3" /></g></g><g
       id="Forme_2"><g
         id="g66"><path
           class="st2"
           d="M 2965,3401.6 C 2831.6,2854.9 1643.3,2766.2 1116.8,3024.6 2657.1,295.3 1384.4,-20.6 932.6,416.7 c -369,357.1 -536.5,1128.4 -530.1,1131 46.6,-213.5 890.1,-1385.5 694.5,-51 -195.6,1334.5 -960.2,1511.8 -629.3,2194 69.9,149.1 96.8,289.8 209.8,351.5 739.5,-936.3 2250.3,-826.5 1890.7,-107.7 -168.2,336.2 438.9,-360.6 396.8,-532.9 z"
           id="path68"
           inkscape:connector-curvature="0"
           style="fill:#232323" /></g></g><g
       id="Ellipse_4"><g
         id="g71"><path
           class="st2"
           d="m 2612.9,1582.8 c -10.6,-232.3 -149.1,-437.6 -309.2,-458.5 -160.1,-21.3 -281.3,150.7 -270.7,385.9 10.6,234 149.1,433.2 309.2,455.3 160.2,21 281.3,-150.5 270.7,-382.7 z"
           id="path73"
           inkscape:connector-curvature="0"
           style="fill:#232323" /></g></g></g></svg>